<?xml version="1.0" standalone="no"?>
<!DOCTYPE svg PUBLIC "-//W3C//DTD SVG 20010904//EN"
 "http://www.w3.org/TR/2001/REC-SVG-20010904/DTD/svg10.dtd">
<svg version="1.0" xmlns="http://www.w3.org/2000/svg"
 width="300.000000pt" height="254.000000pt" viewBox="0 0 300.000000 254.000000"
 preserveAspectRatio="xMidYMid meet">
<metadata>
Created by potrace 1.10, written by Peter Selinger 2001-2011
</metadata>
<g transform="translate(0.000000,254.000000) scale(0.100000,-0.100000)"
fill="#000000" stroke="none">
<path d="M253 2533 c75 -2 199 -2 275 0 75 1 13 3 -138 3 -151 0 -213 -2 -137
-3z"/>
<path d="M698 2533 c18 -2 45 -2 60 0 15 2 0 4 -33 4 -33 0 -45 -2 -27 -4z"/>
<path d="M888 2533 c23 -2 61 -2 85 0 23 2 4 4 -43 4 -47 0 -66 -2 -42 -4z"/>
<path d="M1108 2533 c45 -2 119 -2 165 0 45 1 8 3 -83 3 -91 0 -128 -2 -82 -3z"/>
<path d="M1387 2533 c18 -2 50 -2 70 0 21 2 7 4 -32 4 -38 0 -55 -2 -38 -4z"/>
<path d="M1568 2533 c34 -2 90 -2 125 0 34 2 6 3 -63 3 -69 0 -97 -1 -62 -3z"/>
<path d="M1993 2533 c65 -2 168 -2 230 0 62 1 9 3 -118 3 -126 0 -177 -2 -112
-3z"/>
<path d="M2498 2533 c34 -2 88 -2 120 0 31 2 3 3 -63 3 -66 0 -92 -1 -57 -3z"/>
<path d="M2753 2533 c43 -2 110 -2 150 0 40 1 5 3 -78 3 -82 0 -115 -2 -72 -3z"/>
<path d="M1412 1754 c-233 -51 -403 -261 -402 -499 1 -88 13 -142 51 -222 31
-65 130 -184 137 -164 2 6 -7 21 -21 31 -40 32 -103 134 -126 202 -30 93 -35
162 -17 245 29 139 113 261 228 330 77 47 244 86 223 53 -2 -4 -26 -10 -53
-14 -132 -17 -275 -127 -337 -258 -39 -83 -56 -165 -35 -178 7 -4 9 -13 6 -19
-4 -6 -12 -8 -18 -5 -7 5 -8 2 -3 -5 6 -10 11 -9 23 3 12 11 13 19 5 27 -12
12 -1 83 23 143 59 151 225 276 367 279 44 1 48 3 43 21 -3 12 -6 27 -6 34 0
14 -6 14 -88 -4z"/>
<path d="M1757 1694 c-3 -3 22 -27 56 -53 34 -25 68 -59 75 -74 11 -23 16 -26
28 -16 8 6 13 13 12 14 -2 1 -32 28 -68 59 -69 62 -94 79 -103 70z"/>
<path d="M1446 1679 c-32 -5 -82 -20 -111 -33 -53 -24 -145 -99 -145 -118 0
-6 22 10 50 35 87 78 193 114 306 104 103 -10 235 -72 250 -119 3 -10 11 -17
17 -15 20 6 19 31 -1 42 -10 6 -41 25 -68 43 -82 55 -192 77 -298 61z"/>
<path d="M1294 1579 c-188 -140 -226 -383 -87 -564 47 -62 139 -121 211 -135
31 -7 65 -16 75 -21 13 -7 23 -6 33 2 24 20 0 32 -63 33 -38 1 -74 10 -105 25
-91 44 -185 147 -172 187 5 15 4 16 -4 5 -14 -20 -42 76 -42 145 0 135 88 283
193 323 26 10 35 25 20 34 -5 3 -31 -13 -59 -34z"/>
<path d="M1434 1601 c-148 -37 -267 -182 -268 -330 -1 -76 10 -141 25 -141 5
0 6 11 2 28 -5 15 -8 63 -8 107 0 67 4 89 28 137 35 71 110 140 183 167 62 24
163 28 194 9 21 -14 35 -6 27 15 -6 15 -131 21 -183 8z"/>
<path d="M1428 1556 c-79 -26 -131 -64 -175 -129 -63 -93 -67 -215 -11 -320
56 -104 154 -162 273 -161 69 0 100 10 208 70 27 15 35 38 18 48 -5 4 -7 -4
-3 -16 4 -17 2 -20 -11 -15 -9 3 -19 2 -22 -4 -4 -5 -30 -21 -58 -36 -44 -23
-64 -27 -132 -27 -95 1 -137 17 -202 76 -71 66 -88 107 -88 213 0 74 4 97 23
132 45 86 136 152 216 158 28 2 42 8 44 19 4 20 2 20 -80 -8z"/>
<path d="M1037 1538 c-3 -13 -18 -54 -32 -93 -36 -92 -44 -222 -21 -313 9 -35
16 -72 16 -82 0 -24 18 -36 33 -21 9 9 7 10 -7 5 -16 -6 -18 -4 -13 10 4 10 0
46 -9 79 -33 127 -10 301 50 390 13 19 22 38 18 41 -12 13 -30 5 -35 -16z"/>
<path d="M1769 1258 c-1 -2 -3 -19 -4 -38 -1 -20 -10 -53 -21 -75 -23 -49 -90
-115 -116 -115 -20 0 -21 -21 -1 -27 6 -2 38 22 71 54 43 43 64 71 73 103 7
25 17 51 22 57 11 15 2 43 -13 43 -5 0 -11 -1 -11 -2z"/>
<path d="M1995 1250 c-3 -5 -3 -20 0 -32 9 -34 -12 -114 -47 -185 -45 -93
-176 -212 -250 -228 -16 -4 -28 -13 -28 -22 0 -17 -4 -18 80 27 129 70 233
209 261 351 6 33 15 62 20 65 12 7 -1 34 -16 34 -8 0 -16 -4 -20 -10z"/>
<path d="M1235 1240 c-4 -6 -3 -16 2 -23 5 -7 15 -30 21 -52 14 -50 60 -105
119 -146 56 -39 44 -12 -14 30 -50 37 -96 110 -98 159 -1 36 -17 53 -30 32z"/>
<path d="M1930 1102 c0 -35 -63 -135 -113 -179 -145 -127 -363 -150 -526 -56
-62 36 -131 102 -148 141 -13 32 -27 40 -37 23 -6 -10 37 -64 91 -114 18 -16
30 -35 26 -41 -3 -6 -3 -8 2 -4 4 4 30 -6 59 -22 135 -75 292 -80 432 -14 104
49 228 189 226 255 -1 28 11 39 21 19 3 -6 4 -5 3 2 -1 7 -10 14 -19 16 -13 3
-17 -4 -17 -26z"/>
<path d="M1943 933 c1 -5 -2 -9 -6 -10 -4 -1 -32 -24 -61 -50 -172 -158 -426
-187 -624 -72 -51 29 -53 31 -35 45 17 14 16 14 -6 3 -21 -10 -26 -8 -41 11
-10 13 -22 20 -29 16 -16 -10 -13 -26 7 -33 9 -4 31 -17 47 -29 53 -40 155
-82 228 -95 165 -27 334 23 457 136 25 23 53 45 63 48 18 7 24 37 7 37 -5 0
-9 -3 -7 -7z"/>
<path d="M1390 503 l0 -73 40 0 c29 0 40 4 40 15 0 11 -7 14 -25 9 -22 -5 -25
-3 -25 19 0 20 4 24 25 19 18 -3 25 0 25 12 0 11 -9 16 -30 16 -22 0 -28 4
-24 15 4 8 17 15 30 15 13 0 24 6 24 13 0 9 -14 13 -40 12 l-40 0 0 -72z"/>
<path d="M1543 562 c-3 -9 -14 -39 -25 -65 -10 -26 -18 -52 -18 -57 0 -19 28
-10 33 10 3 13 14 20 30 20 17 0 28 -7 32 -20 3 -11 13 -20 21 -20 16 0 16 0
-16 94 -17 51 -46 70 -57 38z m36 -59 c1 -7 -8 -13 -18 -13 -18 0 -19 3 -9 32
10 28 12 30 19 12 4 -10 8 -25 8 -31z"/>
<path d="M1264 556 c-10 -26 0 -50 26 -63 37 -18 32 -39 -9 -35 -24 3 -32 0
-29 -10 6 -17 65 -23 84 -7 24 20 16 48 -21 70 -39 23 -38 41 2 37 14 -2 28 3
30 10 7 18 -76 16 -83 -2z"/>
<path d="M1664 556 c-10 -26 0 -50 26 -63 37 -18 32 -39 -9 -35 -24 3 -32 0
-29 -10 6 -17 65 -23 84 -7 22 18 13 50 -20 68 -33 19 -32 36 3 36 13 0 26 6
28 13 7 18 -76 16 -83 -2z"/>
<path d="M497 373 c-13 -12 -7 -33 8 -33 8 0 15 -5 15 -11 0 -6 -7 -9 -15 -5
-8 3 -15 1 -15 -5 0 -14 42 -7 48 9 2 6 -7 16 -20 21 -18 8 -19 10 -5 10 10 1
15 6 12 11 -7 12 -19 13 -28 3z"/>
<path d="M560 365 c-19 -23 -8 -50 20 -50 16 0 26 6 28 18 4 18 -14 47 -28 47
-4 0 -13 -7 -20 -15z m34 -13 c2 -4 1 -14 -4 -22 -7 -11 -12 -12 -21 -3 -6 6
-8 16 -5 22 8 13 23 14 30 3z"/>
<path d="M630 365 c-17 -21 -8 -50 18 -53 12 -2 22 1 22 6 0 5 -7 9 -16 8 -25
-2 -29 24 -5 31 11 3 18 9 15 14 -8 13 -20 11 -34 -6z"/>
<path d="M690 345 c0 -19 5 -35 10 -35 6 0 10 16 10 35 0 19 -4 35 -10 35 -5
0 -10 -16 -10 -35z"/>
<path d="M741 357 c-14 -35 -14 -58 -2 -38 8 13 12 13 27 0 15 -13 16 -12 9
11 -16 51 -23 57 -34 27z"/>
<path d="M790 346 c0 -33 2 -36 28 -35 16 1 20 3 10 6 -11 3 -18 14 -18 28 0
13 -4 27 -10 30 -6 4 -10 -8 -10 -29z"/>
<path d="M880 345 c0 -30 3 -35 23 -34 16 1 18 2 5 6 -21 5 -24 23 -5 23 8 0
7 4 -3 10 -13 8 -12 10 3 10 9 0 17 5 17 10 0 6 -9 10 -20 10 -16 0 -20 -7
-20 -35z"/>
<path d="M941 345 c1 -33 2 -36 8 -15 l7 25 8 -22 c12 -36 26 -27 25 15 -1 37
-1 37 -9 7 -4 -16 -8 -25 -9 -19 0 5 -8 19 -16 30 -13 18 -14 16 -14 -21z"/>
<path d="M1010 365 c-18 -22 -3 -55 26 -55 17 0 24 5 24 20 0 13 -6 20 -17 19
-11 0 -13 -3 -5 -6 6 -2 10 -9 6 -14 -10 -16 -24 -10 -24 11 0 11 7 20 16 20
8 0 12 5 9 10 -9 14 -21 12 -35 -5z"/>
<path d="M1078 345 c-2 -21 0 -35 7 -35 6 0 11 16 11 35 0 19 -3 35 -7 35 -4
0 -9 -16 -11 -35z"/>
<path d="M1121 345 c1 -33 2 -36 8 -15 l7 25 8 -22 c12 -36 26 -27 25 15 -1
37 -1 37 -9 7 -4 -16 -8 -25 -9 -19 0 5 -8 19 -16 30 -13 18 -14 16 -14 -21z"/>
<path d="M1187 373 c-4 -3 -7 -19 -7 -35 0 -24 4 -28 28 -27 16 1 20 3 10 6
-21 5 -23 19 -5 26 8 4 8 6 -2 6 -11 1 -10 5 5 16 19 14 19 14 -2 15 -11 0
-24 -3 -27 -7z"/>
<path d="M1247 373 c-4 -3 -7 -19 -7 -35 0 -24 4 -28 28 -27 23 2 24 2 5 6
-27 5 -31 23 -5 24 14 0 14 2 -3 9 -17 7 -17 9 -2 9 9 1 17 6 17 11 0 11 -23
14 -33 3z"/>
<path d="M1301 343 c0 -28 2 -33 8 -19 7 18 8 18 14 3 3 -9 12 -17 18 -17 9 0
9 4 0 14 -9 10 -9 16 -1 21 14 9 -6 35 -26 35 -10 0 -14 -12 -13 -37z"/>
<path d="M1364 345 c1 -19 6 -35 11 -35 7 0 9 15 7 35 -5 45 -19 45 -18 0z"/>
<path d="M1407 374 c-11 -11 -8 -64 3 -64 6 0 10 8 10 18 1 16 1 16 11 0 15
-27 29 -21 29 12 0 17 -5 30 -11 30 -6 0 -8 -8 -5 -17 4 -12 0 -10 -12 5 -10
13 -21 20 -25 16z"/>
<path d="M1480 365 c-19 -23 -8 -50 23 -53 22 -3 27 1 27 17 0 12 -7 21 -15
21 -9 0 -12 -6 -8 -16 4 -11 2 -15 -7 -12 -23 7 -23 29 -1 35 11 3 18 9 15 14
-8 13 -20 11 -34 -6z"/>
<path d="M1581 349 c-14 -42 -14 -44 6 -28 13 11 17 11 20 2 3 -7 9 -13 14
-13 8 0 -7 46 -22 63 -3 5 -12 -6 -18 -24z"/>
<path d="M1630 370 c0 -5 4 -10 9 -10 5 0 12 -12 14 -27 l4 -28 2 28 c0 15 6
27 11 27 6 0 10 5 10 10 0 6 -11 10 -25 10 -14 0 -25 -4 -25 -10z"/>
<path d="M1694 364 c3 -9 6 -24 6 -35 0 -10 5 -19 10 -19 6 0 10 10 10 23 0
13 5 28 12 35 9 9 6 12 -16 12 -22 0 -27 -4 -22 -16z"/>
<path d="M1755 348 c-14 -34 -11 -53 5 -28 7 12 11 12 26 -1 16 -13 17 -12 11
4 -4 10 -7 21 -7 23 0 3 -4 3 -9 0 -5 -4 -7 3 -4 14 8 32 -7 23 -22 -12z"/>
<path d="M1822 371 c-22 -13 -11 -56 16 -59 12 -2 22 1 22 6 0 5 -8 9 -17 8
-10 0 -19 7 -21 17 -2 12 3 17 18 17 12 0 18 5 15 10 -7 12 -16 12 -33 1z"/>
<path d="M1977 373 c-13 -12 -7 -33 8 -33 8 0 15 -5 15 -11 0 -6 -7 -9 -15 -5
-8 3 -15 1 -15 -5 0 -14 42 -7 48 9 2 6 -7 16 -20 21 -18 8 -19 10 -5 10 10 1
15 6 12 11 -7 12 -19 13 -28 3z"/>
<path d="M2034 345 c1 -19 6 -35 11 -35 7 0 9 15 7 35 -5 45 -19 45 -18 0z"/>
<path d="M2077 374 c-4 -4 -7 -21 -6 -38 1 -30 1 -30 8 -6 l7 25 7 -25 c3 -13
9 -21 12 -18 3 3 0 20 -7 38 -7 17 -16 28 -21 24z"/>
<path d="M2115 362 c-6 -22 3 -52 16 -52 12 0 12 57 0 65 -5 3 -12 -3 -16 -13z"/>
<path d="M2190 350 c0 -21 -4 -30 -12 -27 -7 2 -13 14 -12 26 0 11 -3 21 -8
21 -5 0 -8 -12 -6 -27 2 -20 9 -29 24 -31 17 -2 22 3 26 28 3 17 1 33 -4 36
-4 3 -8 -9 -8 -26z"/>
<path d="M2222 348 c-2 -35 0 -38 26 -38 15 0 34 6 40 12 10 10 15 10 22 -2
16 -26 19 -6 3 30 l-15 35 -14 -32 c-9 -21 -21 -33 -33 -33 -15 0 -21 8 -24
33 -4 31 -4 31 -5 -5z"/>
<path d="M2338 368 c5 -7 12 -24 15 -38 4 -25 4 -25 6 3 0 15 6 27 11 27 6 0
10 5 10 10 0 6 -12 10 -26 10 -20 0 -24 -3 -16 -12z"/>
<path d="M2400 365 c-19 -23 -8 -50 20 -50 16 0 26 6 28 18 4 18 -14 47 -28
47 -4 0 -13 -7 -20 -15z m40 -19 c0 -21 -21 -31 -30 -15 -5 7 -6 17 -4 21 9
14 34 9 34 -6z"/>
<path d="M2467 374 c-11 -11 -8 -64 3 -64 6 0 10 5 10 11 0 8 4 8 14 0 12 -10
14 -6 13 21 -2 31 -23 48 -40 32z"/>
</g>
</svg>
