<svg xmlns="http://www.w3.org/2000/svg" width="538" height="456" viewBox="0 0 538 456" version="1.1"><path d="M 264.622 138.803 C 264.311 139.305, 260.636 140.268, 256.455 140.943 C 227.761 145.572, 203.532 163.699, 190.087 190.598 C 184.309 202.157, 181.929 211.520, 181.281 225.250 C 180.420 243.471, 183.420 257.492, 191.450 272.773 C 197.928 285.101, 212.746 301.654, 215.150 299.250 C 215.842 298.558, 214.960 297.311, 212.403 295.365 C 202.784 288.046, 190.131 267.415, 186.503 253.137 C 179.821 226.836, 184.725 200.686, 200.499 178.500 C 212.684 161.362, 234.737 147.268, 254.732 143.839 C 262.732 142.467, 267.871 143.246, 265.966 145.541 C 265.300 146.344, 263.532 147, 262.038 147 C 257.233 147, 243.717 150.929, 236.089 154.543 C 212.669 165.639, 196.013 186.135, 189.986 211.274 C 187.370 222.187, 187.393 225.608, 190.087 226.312 C 193.214 227.130, 192.165 230.509, 188.797 230.466 C 187.341 230.448, 186.367 230.785, 186.634 231.216 C 187.460 232.553, 190.690 232.079, 192.067 230.419 C 193.097 229.179, 193.123 228.427, 192.190 226.932 C 190.471 224.181, 190.719 219.450, 193.046 210.564 C 200.162 183.397, 219.836 162.211, 246 153.542 C 255.320 150.453, 264.272 149.013, 266.479 150.248 C 267.382 150.754, 268.769 150.919, 269.561 150.615 C 271.370 149.921, 271.442 146.365, 269.668 145.300 C 268.935 144.860, 268.373 143.162, 268.418 141.527 C 268.499 138.590, 265.904 136.728, 264.622 138.803 M 309.667 148.667 C 308.764 149.570, 308.821 152.771, 309.750 153.345 C 310.163 153.600, 310.500 152.502, 310.500 150.905 C 310.500 149.307, 310.462 148, 310.417 148 C 310.371 148, 310.033 148.300, 309.667 148.667 M 315.228 152.172 C 314.488 152.912, 316.311 154.665, 321.336 158.044 C 329.433 163.488, 338.642 172.500, 339.173 175.500 C 339.416 176.869, 340.312 177.500, 342.014 177.500 C 346.394 177.500, 344.817 174.595, 336.081 166.575 C 325.373 156.743, 316.668 150.732, 315.228 152.172 M 261.561 154.112 C 245.669 156.220, 228.471 164.717, 217.896 175.687 C 212.581 181.201, 212.361 181.629, 213.632 184 C 214.896 186.361, 214.971 186.380, 214.985 184.349 C 214.995 182.972, 217.693 179.683, 222.476 175.216 C 241.830 157.141, 269.760 151.575, 296.119 160.541 C 307.842 164.528, 320.165 172.672, 322.075 177.696 C 323.367 181.095, 327.500 180.575, 327.500 177.014 C 327.500 175.372, 326.859 174.404, 325.614 174.164 C 324.576 173.964, 321.322 171.841, 318.381 169.446 C 304.164 157.866, 280.800 151.561, 261.561 154.112 M 238.396 167.410 C 238.069 168.262, 236.185 169.959, 234.209 171.180 C 219.565 180.230, 207.201 197.719, 203.415 214.737 C 200.965 225.751, 201.804 243.054, 205.264 252.835 C 213.852 277.112, 234.982 294.972, 260.125 299.205 C 264.181 299.888, 268.095 301.021, 268.821 301.723 C 269.548 302.426, 270.529 303, 271 303 C 272.199 303, 275 300.072, 275 298.818 C 275 298.246, 274.152 298.826, 273.115 300.107 C 271.463 302.146, 271.020 302.261, 269.545 301.037 C 268.619 300.269, 268.042 298.933, 268.263 298.070 C 268.594 296.782, 267.574 296.475, 262.583 296.363 C 255.145 296.195, 242.457 291.738, 234.634 286.545 C 222.269 278.338, 210.890 262.603, 206.397 247.500 C 203.541 237.900, 203.964 220.710, 207.309 210.500 C 210.090 202.009, 214.879 193.294, 220.602 186.310 C 225.310 180.565, 236.216 172.615, 240.233 172 C 242.918 171.589, 243.500 171.055, 243.500 169 C 243.500 167.167, 242.898 166.415, 241.246 166.180 C 239.903 165.989, 238.750 166.487, 238.396 167.410 M 258.948 168.471 C 245.787 171.142, 230.846 180.194, 222.802 190.369 C 217.791 196.709, 212.433 207.279, 210.443 214.751 C 208.299 222.802, 208.358 238.329, 210.560 245.655 C 211.527 248.870, 212.359 253.036, 212.409 254.914 C 212.460 256.816, 213.065 258.444, 213.775 258.589 C 214.476 258.733, 214.589 258.621, 214.025 258.342 C 212.156 257.415, 212.955 253.954, 215.250 253.031 C 216.488 252.534, 216.997 252.098, 216.382 252.063 C 214.189 251.939, 211.578 239.891, 211.602 230 C 211.667 201.754, 230.787 177.962, 258.699 171.395 C 267.561 169.310, 282.151 169.922, 284.997 172.498 C 287.486 174.750, 290 173.762, 290 170.531 C 290 169.139, 289.663 167.994, 289.250 167.987 C 288.837 167.981, 283.325 167.787, 277 167.558 C 269.736 167.295, 263.086 167.632, 258.948 168.471 M 265.450 173.842 C 264.928 174.305, 261.905 175.239, 258.734 175.917 C 239.369 180.060, 222.558 196.397, 217.487 216 C 214.969 225.734, 215.812 241.253, 219.362 250.500 C 225.842 267.378, 241.405 280.944, 259 285.048 C 265.614 286.592, 277.631 286.576, 284.499 285.016 C 294.519 282.739, 311.059 272.713, 308.594 270.410 C 307.807 269.675, 306.745 270.064, 304.989 271.730 C 303.620 273.029, 299.056 275.823, 294.848 277.939 C 261.238 294.837, 221.788 272.230, 218.403 234.132 C 216.573 213.539, 229.183 191.643, 248 182.740 C 256.684 178.631, 263.977 176.848, 266.446 178.229 C 268.935 179.622, 271 178.399, 271 175.531 C 271 173.557, 270.494 173, 268.700 173 C 267.435 173, 265.972 173.379, 265.450 173.842 M 187.709 176.624 C 187.319 177.014, 187 178.171, 187 179.195 C 187 180.219, 185.703 183.632, 184.117 186.779 C 174.354 206.158, 171.426 233.273, 176.858 254 C 179.675 264.748, 180.696 267.054, 182.359 266.416 C 183.583 265.946, 183.576 265.457, 182.306 262.913 C 181.495 261.286, 179.926 255.578, 178.820 250.228 C 175.957 236.379, 176.635 216.249, 180.387 203.703 C 183.590 192.995, 188.270 183.461, 191.056 181.970 C 193.714 180.547, 193.307 176.616, 190.459 176.208 C 189.336 176.047, 188.099 176.235, 187.709 176.624 M 221.359 233.508 C 221.040 234.338, 221.504 236.543, 222.390 238.409 C 223.275 240.275, 224 242.409, 224.001 243.151 C 224.002 245.708, 229.718 256.513, 233.765 261.608 C 235.996 264.417, 240.674 268.573, 244.161 270.844 C 247.647 273.114, 251.416 275.878, 252.535 276.986 C 253.655 278.094, 255.230 278.971, 256.035 278.937 C 256.841 278.902, 256.454 278.454, 255.176 277.941 C 253.723 277.359, 252.979 276.352, 253.192 275.255 C 253.432 274.020, 251.899 272.536, 248.016 270.244 C 236.857 263.658, 226.638 248.796, 226.375 238.771 C 226.306 236.147, 226.194 233.550, 226.125 233 C 225.927 231.419, 222 231.837, 221.359 233.508 M 316.767 237.865 C 317.342 241.785, 313.474 251.137, 308.457 257.951 C 303.559 264.604, 295.603 270.970, 293.028 270.297 C 290.948 269.753, 288.578 272.459, 289.357 274.487 C 290.767 278.163, 296.064 274.943, 307.210 263.633 C 312.234 258.535, 318.502 247.006, 319.516 241 C 319.980 238.250, 319.707 237.256, 318.243 236.360 C 316.583 235.344, 316.421 235.509, 316.767 237.865 M 358.351 241.879 C 358.026 254.157, 348.625 275.700, 338.340 287.739 C 328.989 298.685, 307.751 313.008, 303.074 311.524 C 300.917 310.839, 298.544 313.369, 299.357 315.487 C 300.013 317.197, 303.552 317.534, 304.514 315.978 C 304.861 315.415, 307.925 313.555, 311.323 311.845 C 337.674 298.575, 355.259 275.038, 360.889 245.499 C 362.598 236.536, 362.597 236.498, 360.553 236.378 C 358.728 236.272, 358.483 236.883, 358.351 241.879 M 351.734 257.908 C 351.279 259.649, 350.603 260.129, 349.144 259.748 C 347.546 259.330, 346.790 260.147, 345.169 264.047 C 336.977 283.759, 315.847 301.961, 293.670 308.408 C 281.628 311.908, 264.361 312.157, 251.500 309.015 C 242.925 306.921, 226.990 298.601, 219.500 292.308 C 212.463 286.395, 202.559 274.523, 203.455 273.073 C 204.375 271.584, 201.500 268.871, 199.724 269.553 C 197.467 270.418, 197.486 274.686, 199.750 275.475 C 200.713 275.811, 203.300 278.601, 205.500 281.674 C 213.066 292.245, 227.333 303.038, 240.434 308.101 C 281.514 323.976, 326.347 306.963, 346.084 268.009 C 347.893 264.439, 350.253 260.806, 351.328 259.935 C 352.404 259.064, 353.074 257.722, 352.817 256.952 C 352.518 256.055, 352.129 256.398, 351.734 257.908 M 338.500 297.231 C 327.480 308.324, 316.164 315.343, 300.956 320.515 C 278.798 328.051, 251.032 326.049, 229.712 315.377 C 220.020 310.525, 210.086 303.357, 208.964 300.406 C 207.927 297.678, 205.835 297.290, 204.011 299.487 C 202.523 301.280, 203.365 304, 205.408 304 C 206.217 304, 210.336 306.481, 214.562 309.513 C 223.828 316.161, 233.883 321.056, 245.701 324.674 C 253.783 327.147, 255.886 327.367, 271.500 327.367 C 287.195 327.367, 289.191 327.156, 297.500 324.618 C 308.254 321.333, 320.024 315.601, 328.390 309.575 C 336.507 303.728, 346.705 293.291, 345.459 292.105 C 344.866 291.539, 342.214 293.492, 338.500 297.231 M 228.337 354.477 C 223.187 358.083, 224.898 364.377, 232.015 368.007 C 234.769 369.413, 236 370.695, 236 372.160 C 236 374.132, 235.615 374.240, 230.500 373.712 C 225.214 373.167, 225 373.237, 225 375.527 C 225 380.538, 238.060 379.957, 240.934 374.818 C 243.195 370.776, 241.482 367.256, 235.750 364.167 C 232.658 362.500, 231 360.945, 231 359.713 C 231 358.073, 231.636 357.865, 235.750 358.160 C 239.956 358.461, 240.535 358.257, 240.802 356.380 C 241.017 354.875, 240.438 354.082, 238.802 353.644 C 234.871 352.591, 230.537 352.936, 228.337 354.477 M 249 366 L 249 379 256.570 379 C 263.847 379, 264.127 378.913, 263.820 376.750 C 263.546 374.825, 262.805 374.456, 258.691 374.193 C 253.939 373.889, 253.885 373.848, 254.191 370.693 C 254.480 367.709, 254.778 367.480, 258.750 367.193 C 262.186 366.944, 263 366.513, 263 364.943 C 263 363.303, 262.288 363, 258.434 363 C 254.042 363, 253.879 362.895, 254.184 360.250 C 254.473 357.732, 254.900 357.474, 259.250 357.195 C 263.184 356.943, 264 356.556, 264 354.945 C 264 353.191, 263.263 353, 256.500 353 L 249 353 249 366 M 277 353.288 C 277 353.446, 274.972 359.325, 272.494 366.352 L 267.989 379.128 271.205 378.814 C 273.690 378.571, 274.553 377.932, 275.001 376 C 275.505 373.827, 276.200 373.460, 280.323 373.194 C 284.820 372.904, 285.120 373.046, 286.130 375.944 C 287 378.439, 287.748 379, 290.205 379 C 292.676 379, 293.086 378.687, 292.499 377.250 C 292.106 376.288, 290.306 371.225, 288.500 366 C 283.754 352.270, 284.209 353, 280.393 353 C 278.527 353, 277 353.130, 277 353.288 M 299.575 355.334 C 295.024 359.885, 296.240 364.074, 303.125 367.563 C 306.652 369.350, 308 370.621, 308 372.157 C 308 374.132, 307.618 374.240, 302.500 373.712 C 297.250 373.170, 297 373.250, 297 375.465 C 297 381.496, 311.866 379.653, 313.428 373.429 C 314.310 369.915, 312.020 366.561, 306.985 363.993 C 304.240 362.592, 303 361.303, 303 359.850 C 303 357.943, 303.430 357.788, 307.473 358.244 C 311.278 358.673, 312.037 358.457, 312.564 356.799 C 313.402 354.158, 312.833 353.786, 307.097 353.235 C 302.773 352.820, 301.825 353.084, 299.575 355.334 M 278.777 363.018 L 277.184 368 280.494 368 L 283.804 368 282.399 363.330 C 281.626 360.762, 280.853 358.520, 280.682 358.348 C 280.510 358.177, 279.653 360.278, 278.777 363.018 M 89 390.500 C 87.435 392.386, 88.975 394.526, 92.541 395.421 C 93.893 395.760, 95 396.494, 95 397.050 C 95 398.630, 91.993 399.393, 90.733 398.133 C 89.018 396.418, 87.569 396.776, 89.042 398.551 C 90.977 400.882, 95.427 400.012, 95.823 397.223 C 96.076 395.443, 95.467 394.710, 93.028 393.860 C 89.217 392.531, 89.617 390.395, 93.605 390.779 C 95.831 390.993, 96.153 390.823, 95 390.044 C 92.843 388.587, 90.436 388.770, 89 390.500 M 100.571 390.571 C 97.373 393.770, 99.638 400, 104 400 C 106.567 400, 109 397.324, 109 394.500 C 109 391.676, 106.567 389, 104 389 C 102.979 389, 101.436 389.707, 100.571 390.571 M 113.243 390.157 C 111.545 391.855, 111.674 397.484, 113.445 398.954 C 115.240 400.444, 119.193 399.957, 119.780 398.174 C 120.144 397.072, 119.850 397.072, 118.048 398.174 C 116.153 399.332, 115.696 399.254, 114.439 397.559 C 113.648 396.491, 113 395.115, 113 394.500 C 113 393.885, 113.648 392.509, 114.439 391.441 C 115.696 389.746, 116.153 389.668, 118.048 390.826 C 119.850 391.928, 120.144 391.928, 119.782 390.826 C 119.198 389.051, 114.799 388.601, 113.243 390.157 M 123.750 389.662 C 124.480 389.957, 125 391.969, 125 394.500 C 125 397.031, 124.480 399.043, 123.750 399.338 C 123.063 399.615, 123.625 399.878, 125 399.921 C 127.373 399.996, 127.500 399.721, 127.500 394.500 C 127.500 389.279, 127.373 389.004, 125 389.079 C 123.625 389.122, 123.063 389.385, 123.750 389.662 M 132.266 394.216 C 130.281 399.388, 130.193 402.193, 132.125 398.742 C 133.320 396.606, 136.852 396.451, 137.638 398.500 C 137.955 399.325, 138.588 400, 139.046 400 C 140.183 400, 136.607 389.702, 135.321 389.274 C 134.756 389.085, 133.381 391.309, 132.266 394.216 M 143.185 394.250 L 143 400 146.750 399.840 C 150.370 399.685, 150.389 399.666, 147.300 399.280 C 144.220 398.896, 144.087 398.687, 143.735 393.690 L 143.370 388.500 143.185 394.250 M 158 394.500 L 158 400 162.250 399.840 C 165.934 399.701, 166.067 399.626, 163.250 399.277 C 159.336 398.791, 158.596 395.409, 162.250 394.706 L 164.500 394.272 162.250 394.136 C 158.466 393.907, 159.303 390.213, 163.250 389.723 C 166.067 389.374, 165.934 389.299, 162.250 389.160 L 158 389 158 394.500 M 168 394.500 C 168 397.525, 168.450 400, 169 400 C 169.550 400, 170.028 398.087, 170.062 395.750 L 170.124 391.500 172.259 395.750 C 175.280 401.763, 177 401.309, 177 394.500 C 177 388.315, 175.299 386.967, 174.792 392.750 L 174.463 396.500 172.546 392.750 C 169.713 387.207, 168 387.867, 168 394.500 M 181.698 390.781 C 178.003 394.864, 181.083 400.254, 186.858 399.814 C 189.572 399.607, 190 399.195, 190 396.787 C 190 394.385, 189.620 394.016, 187.250 394.116 C 185.558 394.187, 185.173 394.408, 186.250 394.689 C 188.452 395.265, 188.529 397.583, 186.373 398.410 C 182.755 399.799, 180.302 393.654, 183.436 391.053 C 184.535 390.141, 185.384 390.135, 187.052 391.028 C 188.806 391.967, 189.145 391.932, 188.789 390.847 C 188.089 388.719, 183.602 388.678, 181.698 390.781 M 193.500 394.500 C 193.500 399.721, 193.627 399.996, 196 399.921 C 197.375 399.878, 197.938 399.615, 197.250 399.338 C 196.520 399.043, 196 397.031, 196 394.500 C 196 391.969, 196.520 389.957, 197.250 389.662 C 197.938 389.385, 197.375 389.122, 196 389.079 C 193.627 389.004, 193.500 389.279, 193.500 394.500 M 201.150 394.750 L 201.300 400.500 201.917 396 L 202.533 391.500 204.787 395.750 C 208.031 401.867, 210 401.395, 210 394.500 C 210 388.046, 208.256 387.052, 207.807 393.250 L 207.500 397.500 205.230 393.250 C 203.981 390.913, 202.518 389, 201.980 389 C 201.436 389, 201.067 391.561, 201.150 394.750 M 213 394.500 L 213 400 216.750 399.840 C 220.442 399.682, 220.450 399.674, 217.250 399.277 C 212.996 398.749, 212.623 395.342, 216.750 394.716 L 219.500 394.300 216.750 394.150 C 214.748 394.041, 214 393.473, 214 392.063 C 214 390.628, 214.841 390.022, 217.250 389.723 C 220.450 389.326, 220.442 389.318, 216.750 389.160 L 213 389 213 394.500 M 223 394.500 L 223 400 227.250 399.840 C 230.934 399.701, 231.067 399.626, 228.250 399.277 C 224.336 398.791, 223.596 395.409, 227.250 394.706 L 229.500 394.272 227.250 394.136 C 223.466 393.907, 224.303 390.213, 228.250 389.723 C 231.067 389.374, 230.934 389.299, 227.250 389.160 L 223 389 223 394.500 M 233 394.500 C 233 397.525, 233.450 400, 234 400 C 234.550 400, 235 398.875, 235 397.500 C 235 396.125, 235.374 395, 235.831 395 C 236.288 395, 237.264 396.125, 238 397.500 C 238.736 398.875, 239.712 400, 240.169 400 C 241.334 400, 241.204 398.604, 239.918 397.318 C 239.142 396.542, 239.186 395.674, 240.076 394.250 C 242.022 391.133, 240.582 389, 236.531 389 L 233 389 233 394.500 M 244.800 390.200 C 245.460 390.860, 246 392.795, 246 394.500 C 246 396.205, 245.460 398.140, 244.800 398.800 C 243.867 399.733, 244.256 399.982, 246.550 399.921 C 248.172 399.878, 248.938 399.615, 248.250 399.338 C 247.520 399.043, 247 397.031, 247 394.500 C 247 391.969, 247.520 389.957, 248.250 389.662 C 248.938 389.385, 248.172 389.122, 246.550 389.079 C 244.256 389.018, 243.867 389.267, 244.800 390.200 M 252 394.500 C 252 397.525, 252.450 400, 253 400 C 253.550 400, 254.028 398.087, 254.062 395.750 L 254.124 391.500 256.259 395.750 C 259.280 401.763, 261 401.309, 261 394.500 C 261 388.315, 259.299 386.967, 258.792 392.750 L 258.463 396.500 256.546 392.750 C 253.713 387.207, 252 387.867, 252 394.500 M 265.571 390.571 C 263.760 392.383, 263.550 395.290, 265.031 398.057 C 265.809 399.511, 267.034 399.945, 270.031 399.828 C 273.687 399.684, 274 399.448, 274 396.836 C 274 394.381, 273.631 394.016, 271.250 394.116 C 269.558 394.187, 269.173 394.408, 270.250 394.689 C 272.354 395.239, 272.485 396.353, 270.627 397.895 C 268.313 399.815, 266 398.117, 266 394.500 C 266 390.915, 267.446 389.836, 271.154 390.655 C 273.021 391.068, 273.194 390.955, 272 390.102 C 269.858 388.572, 267.390 388.752, 265.571 390.571 M 283.661 394.093 C 282.666 396.894, 282.100 399.433, 282.402 399.736 C 282.705 400.039, 283.237 399.547, 283.583 398.643 C 284.384 396.556, 289 396.434, 289 398.500 C 289 399.325, 289.498 400, 290.107 400 C 290.716 400, 290.973 399.372, 290.678 398.604 C 290.384 397.836, 289.589 395.361, 288.913 393.104 C 288.237 390.847, 287.185 389, 286.576 389 C 285.968 389, 284.656 391.292, 283.661 394.093 M 294.250 389.689 C 295.618 390.047, 296 391.222, 296 395.073 C 296 397.783, 296.450 400, 297 400 C 297.550 400, 298 397.781, 298 395.070 C 298 390.752, 298.279 390.085, 300.250 389.706 C 301.488 389.467, 300.250 389.263, 297.500 389.252 C 294.750 389.241, 293.288 389.438, 294.250 389.689 M 304.250 389.689 C 305.618 390.047, 306 391.222, 306 395.073 C 306 397.783, 306.450 400, 307 400 C 307.550 400, 308 397.781, 308 395.070 C 308 390.752, 308.279 390.085, 310.250 389.706 C 311.488 389.467, 310.250 389.263, 307.500 389.252 C 304.750 389.241, 303.288 389.438, 304.250 389.689 M 315.569 392.250 C 313.246 397.929, 312.809 400, 313.933 400 C 314.520 400, 315 399.325, 315 398.500 C 315 396.434, 319.616 396.556, 320.417 398.643 C 320.763 399.547, 321.315 400.019, 321.641 399.692 C 322.438 398.896, 318.837 389, 317.751 389 C 317.282 389, 316.300 390.462, 315.569 392.250 M 326.243 390.157 C 324.545 391.855, 324.674 397.484, 326.445 398.954 C 328.240 400.444, 332.193 399.957, 332.780 398.174 C 333.144 397.072, 332.850 397.072, 331.048 398.174 C 329.153 399.332, 328.696 399.254, 327.439 397.559 C 326.648 396.491, 326 395.115, 326 394.500 C 326 393.885, 326.648 392.509, 327.439 391.441 C 328.696 389.746, 329.153 389.668, 331.048 390.826 C 332.850 391.928, 333.144 391.928, 332.782 390.826 C 332.198 389.051, 327.799 388.601, 326.243 390.157 M 337.163 394.500 C 337.094 400.160, 337.161 400.334, 338.337 397.578 L 339.584 394.656 341.806 397.481 C 343.028 399.034, 344.298 400.035, 344.628 399.705 C 344.958 399.375, 344.267 397.884, 343.092 396.390 L 340.957 393.675 343.153 391.338 C 344.360 390.052, 344.899 389, 344.349 389 C 343.799 389, 342.258 390.164, 340.924 391.587 L 338.500 394.174 337.868 391.337 C 337.433 389.384, 337.214 390.370, 337.163 394.500 M 354 390.500 C 352.435 392.386, 353.975 394.526, 357.541 395.421 C 358.893 395.760, 360 396.494, 360 397.050 C 360 398.630, 356.993 399.393, 355.733 398.133 C 354.018 396.418, 352.569 396.776, 354.042 398.551 C 355.977 400.882, 360.427 400.012, 360.823 397.223 C 361.076 395.443, 360.467 394.710, 358.028 393.860 C 354.217 392.531, 354.617 390.395, 358.605 390.779 C 360.831 390.993, 361.153 390.823, 360 390.044 C 357.843 388.587, 355.436 388.770, 354 390.500 M 364.800 390.200 C 365.460 390.860, 366 392.795, 366 394.500 C 366 396.205, 365.460 398.140, 364.800 398.800 C 363.867 399.733, 364.256 399.982, 366.550 399.921 C 368.173 399.878, 368.938 399.615, 368.250 399.338 C 367.520 399.043, 367 397.031, 367 394.500 C 367 391.969, 367.520 389.957, 368.250 389.662 C 368.938 389.385, 368.173 389.122, 366.550 389.079 C 364.256 389.018, 363.867 389.267, 364.800 390.200 M 372 394.500 C 372 400.583, 373.955 402.231, 374.076 396.250 L 374.152 392.500 375.415 396 C 376.110 397.925, 377.048 399.500, 377.500 399.500 C 377.952 399.500, 378.890 397.925, 379.585 396 L 380.848 392.500 380.924 396.250 C 381.045 402.231, 383 400.583, 383 394.500 C 383 387.702, 380.663 386.826, 379 393 C 378.408 395.200, 377.733 397, 377.500 397 C 377.267 397, 376.592 395.200, 376 393 C 374.337 386.826, 372 387.702, 372 394.500 M 386 392.566 C 386 397.310, 387.569 400, 390.335 400 C 393.686 400, 395 398.112, 395 393.300 C 395 387.454, 393.185 387.826, 392.805 393.750 C 392.549 397.732, 392.177 398.500, 390.500 398.500 C 388.823 398.500, 388.451 397.732, 388.195 393.750 C 387.842 388.251, 386 387.258, 386 392.566 M 399.185 394.250 L 399 400 402.750 399.840 C 406.370 399.685, 406.389 399.666, 403.300 399.280 C 400.220 398.896, 400.087 398.687, 399.735 393.690 L 399.370 388.500 399.185 394.250 M 409.266 394.216 C 407.281 399.388, 407.193 402.193, 409.125 398.742 C 410.320 396.606, 413.852 396.451, 414.638 398.500 C 414.955 399.325, 415.588 400, 416.046 400 C 417.183 400, 413.607 389.702, 412.321 389.274 C 411.756 389.085, 410.381 391.309, 409.266 394.216 M 420.250 389.689 C 421.618 390.047, 422 391.222, 422 395.073 C 422 397.783, 422.450 400, 423 400 C 423.550 400, 424 397.783, 424 395.073 C 424 391.222, 424.382 390.047, 425.750 389.689 C 426.712 389.438, 425.475 389.232, 423 389.232 C 420.525 389.232, 419.288 389.438, 420.250 389.689 M 430.655 390.829 C 428.484 393.228, 428.555 396.287, 430.829 398.345 C 434.663 401.815, 439 399.775, 439 394.500 C 439 392.795, 438.460 390.860, 437.800 390.200 C 436.033 388.433, 432.546 388.740, 430.655 390.829 M 442 394.500 C 442 397.525, 442.450 400, 443 400 C 443.550 400, 444 398.875, 444 397.500 C 444 396.125, 444.374 395, 444.831 395 C 445.288 395, 446.264 396.125, 447 397.500 C 447.736 398.875, 448.712 400, 449.169 400 C 450.334 400, 450.204 398.604, 448.918 397.318 C 448.142 396.542, 448.186 395.674, 449.076 394.250 C 451.022 391.133, 449.582 389, 445.531 389 L 442 389 442 394.500 M 102.250 390.662 C 101.563 390.940, 101 392.656, 101 394.476 C 101 397.914, 102.744 399.419, 105.500 398.362 C 107.566 397.569, 107.501 391.406, 105.418 390.607 C 104.548 390.273, 103.761 390.036, 103.668 390.079 C 103.576 390.122, 102.938 390.385, 102.250 390.662 M 235 392 C 235 393.273, 235.667 394, 236.833 394 C 239.193 394, 239.998 393.159, 239.324 391.402 C 238.475 389.190, 235 389.671, 235 392 M 432.200 391.200 C 429.986 393.414, 431.367 399, 434.129 399 C 435.362 399, 438 395.934, 438 394.500 C 438 393.066, 435.362 390, 434.129 390 C 433.728 390, 432.860 390.540, 432.200 391.200 M 444 392 C 444 393.273, 444.667 394, 445.833 394 C 448.193 394, 448.998 393.159, 448.324 391.402 C 447.475 389.190, 444 389.671, 444 392 M 285.675 392.405 C 284.646 395.087, 284.855 396, 286.500 396 C 288.143 396, 288.238 395.465, 287.105 392.573 C 286.404 390.785, 286.301 390.773, 285.675 392.405 M 317.015 391.668 C 317.007 392.311, 316.727 393.548, 316.393 394.418 C 315.995 395.456, 316.338 396, 317.393 396 C 318.277 396, 318.993 395.438, 318.985 394.750 C 318.965 393.129, 317.036 390.110, 317.015 391.668 M 133.710 394 C 133.322 395.483, 133.680 396, 135.094 396 C 137.198 396, 137.270 395.867, 136.393 393.582 C 135.559 391.408, 134.338 391.599, 133.710 394 M 410.710 394 C 410.322 395.483, 410.680 396, 412.094 396 C 414.198 396, 414.270 395.867, 413.393 393.582 C 412.559 391.408, 411.338 391.599, 410.710 394" stroke="none" fill="#5b99c2" fill-rule="evenodd"/><path d="M 0 228.002 L 0 456.004 269.250 455.752 L 538.500 455.500 538.752 227.750 L 539.004 -0 269.502 -0 L 0 0 0 228.002 M 0.491 228.500 C 0.491 353.900, 0.608 405.051, 0.750 342.170 C 0.892 279.288, 0.892 176.688, 0.750 114.170 C 0.608 51.651, 0.491 103.100, 0.491 228.500 M 264.622 138.803 C 264.311 139.305, 260.636 140.268, 256.455 140.943 C 227.761 145.572, 203.532 163.699, 190.087 190.598 C 184.309 202.157, 181.929 211.520, 181.281 225.250 C 180.420 243.471, 183.420 257.492, 191.450 272.773 C 197.928 285.101, 212.746 301.654, 215.150 299.250 C 215.842 298.558, 214.960 297.311, 212.403 295.365 C 202.784 288.046, 190.131 267.415, 186.503 253.137 C 179.821 226.836, 184.725 200.686, 200.499 178.500 C 212.684 161.362, 234.737 147.268, 254.732 143.839 C 262.732 142.467, 267.871 143.246, 265.966 145.541 C 265.300 146.344, 263.532 147, 262.038 147 C 257.233 147, 243.717 150.929, 236.089 154.543 C 212.669 165.639, 196.013 186.135, 189.986 211.274 C 187.370 222.187, 187.393 225.608, 190.087 226.312 C 193.214 227.130, 192.165 230.509, 188.797 230.466 C 187.341 230.448, 186.367 230.785, 186.634 231.216 C 187.460 232.553, 190.690 232.079, 192.067 230.419 C 193.097 229.179, 193.123 228.427, 192.190 226.932 C 190.471 224.181, 190.719 219.450, 193.046 210.564 C 200.162 183.397, 219.836 162.211, 246 153.542 C 255.320 150.453, 264.272 149.013, 266.479 150.248 C 267.382 150.754, 268.769 150.919, 269.561 150.615 C 271.370 149.921, 271.442 146.365, 269.668 145.300 C 268.935 144.860, 268.373 143.162, 268.418 141.527 C 268.499 138.590, 265.904 136.728, 264.622 138.803 M 309.667 148.667 C 308.764 149.570, 308.821 152.771, 309.750 153.345 C 310.163 153.600, 310.500 152.502, 310.500 150.905 C 310.500 149.307, 310.462 148, 310.417 148 C 310.371 148, 310.033 148.300, 309.667 148.667 M 315.228 152.172 C 314.488 152.912, 316.311 154.665, 321.336 158.044 C 329.433 163.488, 338.642 172.500, 339.173 175.500 C 339.416 176.869, 340.312 177.500, 342.014 177.500 C 346.394 177.500, 344.817 174.595, 336.081 166.575 C 325.373 156.743, 316.668 150.732, 315.228 152.172 M 261.561 154.112 C 245.669 156.220, 228.471 164.717, 217.896 175.687 C 212.581 181.201, 212.361 181.629, 213.632 184 C 214.896 186.361, 214.971 186.380, 214.985 184.349 C 214.995 182.972, 217.693 179.683, 222.476 175.216 C 241.830 157.141, 269.760 151.575, 296.119 160.541 C 307.842 164.528, 320.165 172.672, 322.075 177.696 C 323.367 181.095, 327.500 180.575, 327.500 177.014 C 327.500 175.372, 326.859 174.404, 325.614 174.164 C 324.576 173.964, 321.322 171.841, 318.381 169.446 C 304.164 157.866, 280.800 151.561, 261.561 154.112 M 238.396 167.410 C 238.069 168.262, 236.185 169.959, 234.209 171.180 C 219.565 180.230, 207.201 197.719, 203.415 214.737 C 200.965 225.751, 201.804 243.054, 205.264 252.835 C 213.852 277.112, 234.982 294.972, 260.125 299.205 C 264.181 299.888, 268.095 301.021, 268.821 301.723 C 269.548 302.426, 270.529 303, 271 303 C 272.199 303, 275 300.072, 275 298.818 C 275 298.246, 274.152 298.826, 273.115 300.107 C 271.463 302.146, 271.020 302.261, 269.545 301.037 C 268.619 300.269, 268.042 298.933, 268.263 298.070 C 268.594 296.782, 267.574 296.475, 262.583 296.363 C 255.145 296.195, 242.457 291.738, 234.634 286.545 C 222.269 278.338, 210.890 262.603, 206.397 247.500 C 203.541 237.900, 203.964 220.710, 207.309 210.500 C 210.090 202.009, 214.879 193.294, 220.602 186.310 C 225.310 180.565, 236.216 172.615, 240.233 172 C 242.918 171.589, 243.500 171.055, 243.500 169 C 243.500 167.167, 242.898 166.415, 241.246 166.180 C 239.903 165.989, 238.750 166.487, 238.396 167.410 M 258.948 168.471 C 245.787 171.142, 230.846 180.194, 222.802 190.369 C 217.791 196.709, 212.433 207.279, 210.443 214.751 C 208.299 222.802, 208.358 238.329, 210.560 245.655 C 211.527 248.870, 212.359 253.036, 212.409 254.914 C 212.460 256.816, 213.065 258.444, 213.775 258.589 C 214.476 258.733, 214.589 258.621, 214.025 258.342 C 212.156 257.415, 212.955 253.954, 215.250 253.031 C 216.488 252.534, 216.997 252.098, 216.382 252.063 C 214.189 251.939, 211.578 239.891, 211.602 230 C 211.667 201.754, 230.787 177.962, 258.699 171.395 C 267.561 169.310, 282.151 169.922, 284.997 172.498 C 287.486 174.750, 290 173.762, 290 170.531 C 290 169.139, 289.663 167.994, 289.250 167.987 C 288.837 167.981, 283.325 167.787, 277 167.558 C 269.736 167.295, 263.086 167.632, 258.948 168.471 M 265.450 173.842 C 264.928 174.305, 261.905 175.239, 258.734 175.917 C 239.369 180.060, 222.558 196.397, 217.487 216 C 214.969 225.734, 215.812 241.253, 219.362 250.500 C 225.842 267.378, 241.405 280.944, 259 285.048 C 265.614 286.592, 277.631 286.576, 284.499 285.016 C 294.519 282.739, 311.059 272.713, 308.594 270.410 C 307.807 269.675, 306.745 270.064, 304.989 271.730 C 303.620 273.029, 299.056 275.823, 294.848 277.939 C 261.238 294.837, 221.788 272.230, 218.403 234.132 C 216.573 213.539, 229.183 191.643, 248 182.740 C 256.684 178.631, 263.977 176.848, 266.446 178.229 C 268.935 179.622, 271 178.399, 271 175.531 C 271 173.557, 270.494 173, 268.700 173 C 267.435 173, 265.972 173.379, 265.450 173.842 M 187.709 176.624 C 187.319 177.014, 187 178.171, 187 179.195 C 187 180.219, 185.703 183.632, 184.117 186.779 C 174.354 206.158, 171.426 233.273, 176.858 254 C 179.675 264.748, 180.696 267.054, 182.359 266.416 C 183.583 265.946, 183.576 265.457, 182.306 262.913 C 181.495 261.286, 179.926 255.578, 178.820 250.228 C 175.957 236.379, 176.635 216.249, 180.387 203.703 C 183.590 192.995, 188.270 183.461, 191.056 181.970 C 193.714 180.547, 193.307 176.616, 190.459 176.208 C 189.336 176.047, 188.099 176.235, 187.709 176.624 M 221.359 233.508 C 221.040 234.338, 221.504 236.543, 222.390 238.409 C 223.275 240.275, 224 242.409, 224.001 243.151 C 224.002 245.708, 229.718 256.513, 233.765 261.608 C 235.996 264.417, 240.674 268.573, 244.161 270.844 C 247.647 273.114, 251.416 275.878, 252.535 276.986 C 253.655 278.094, 255.230 278.971, 256.035 278.937 C 256.841 278.902, 256.454 278.454, 255.176 277.941 C 253.723 277.359, 252.979 276.352, 253.192 275.255 C 253.432 274.020, 251.899 272.536, 248.016 270.244 C 236.857 263.658, 226.638 248.796, 226.375 238.771 C 226.306 236.147, 226.194 233.550, 226.125 233 C 225.927 231.419, 222 231.837, 221.359 233.508 M 316.767 237.865 C 317.342 241.785, 313.474 251.137, 308.457 257.951 C 303.559 264.604, 295.603 270.970, 293.028 270.297 C 290.948 269.753, 288.578 272.459, 289.357 274.487 C 290.767 278.163, 296.064 274.943, 307.210 263.633 C 312.234 258.535, 318.502 247.006, 319.516 241 C 319.980 238.250, 319.707 237.256, 318.243 236.360 C 316.583 235.344, 316.421 235.509, 316.767 237.865 M 358.351 241.879 C 358.026 254.157, 348.625 275.700, 338.340 287.739 C 328.989 298.685, 307.751 313.008, 303.074 311.524 C 300.917 310.839, 298.544 313.369, 299.357 315.487 C 300.013 317.197, 303.552 317.534, 304.514 315.978 C 304.861 315.415, 307.925 313.555, 311.323 311.845 C 337.674 298.575, 355.259 275.038, 360.889 245.499 C 362.598 236.536, 362.597 236.498, 360.553 236.378 C 358.728 236.272, 358.483 236.883, 358.351 241.879 M 351.734 257.908 C 351.279 259.649, 350.603 260.129, 349.144 259.748 C 347.546 259.330, 346.790 260.147, 345.169 264.047 C 336.977 283.759, 315.847 301.961, 293.670 308.408 C 281.628 311.908, 264.361 312.157, 251.500 309.015 C 242.925 306.921, 226.990 298.601, 219.500 292.308 C 212.463 286.395, 202.559 274.523, 203.455 273.073 C 204.375 271.584, 201.500 268.871, 199.724 269.553 C 197.467 270.418, 197.486 274.686, 199.750 275.475 C 200.713 275.811, 203.300 278.601, 205.500 281.674 C 213.066 292.245, 227.333 303.038, 240.434 308.101 C 281.514 323.976, 326.347 306.963, 346.084 268.009 C 347.893 264.439, 350.253 260.806, 351.328 259.935 C 352.404 259.064, 353.074 257.722, 352.817 256.952 C 352.518 256.055, 352.129 256.398, 351.734 257.908 M 338.500 297.231 C 327.480 308.324, 316.164 315.343, 300.956 320.515 C 278.798 328.051, 251.032 326.049, 229.712 315.377 C 220.020 310.525, 210.086 303.357, 208.964 300.406 C 207.927 297.678, 205.835 297.290, 204.011 299.487 C 202.523 301.280, 203.365 304, 205.408 304 C 206.217 304, 210.336 306.481, 214.562 309.513 C 223.828 316.161, 233.883 321.056, 245.701 324.674 C 253.783 327.147, 255.886 327.367, 271.500 327.367 C 287.195 327.367, 289.191 327.156, 297.500 324.618 C 308.254 321.333, 320.024 315.601, 328.390 309.575 C 336.507 303.728, 346.705 293.291, 345.459 292.105 C 344.866 291.539, 342.214 293.492, 338.500 297.231 M 228.337 354.477 C 223.187 358.083, 224.898 364.377, 232.015 368.007 C 234.769 369.413, 236 370.695, 236 372.160 C 236 374.132, 235.615 374.240, 230.500 373.712 C 225.214 373.167, 225 373.237, 225 375.527 C 225 380.538, 238.060 379.957, 240.934 374.818 C 243.195 370.776, 241.482 367.256, 235.750 364.167 C 232.658 362.500, 231 360.945, 231 359.713 C 231 358.073, 231.636 357.865, 235.750 358.160 C 239.956 358.461, 240.535 358.257, 240.802 356.380 C 241.017 354.875, 240.438 354.082, 238.802 353.644 C 234.871 352.591, 230.537 352.936, 228.337 354.477 M 249 366 L 249 379 256.570 379 C 263.847 379, 264.127 378.913, 263.820 376.750 C 263.546 374.825, 262.805 374.456, 258.691 374.193 C 253.939 373.889, 253.885 373.848, 254.191 370.693 C 254.480 367.709, 254.778 367.480, 258.750 367.193 C 262.186 366.944, 263 366.513, 263 364.943 C 263 363.303, 262.288 363, 258.434 363 C 254.042 363, 253.879 362.895, 254.184 360.250 C 254.473 357.732, 254.900 357.474, 259.250 357.195 C 263.184 356.943, 264 356.556, 264 354.945 C 264 353.191, 263.263 353, 256.500 353 L 249 353 249 366 M 277 353.288 C 277 353.446, 274.972 359.325, 272.494 366.352 L 267.989 379.128 271.205 378.814 C 273.690 378.571, 274.553 377.932, 275.001 376 C 275.505 373.827, 276.200 373.460, 280.323 373.194 C 284.820 372.904, 285.120 373.046, 286.130 375.944 C 287 378.439, 287.748 379, 290.205 379 C 292.676 379, 293.086 378.687, 292.499 377.250 C 292.106 376.288, 290.306 371.225, 288.500 366 C 283.754 352.270, 284.209 353, 280.393 353 C 278.527 353, 277 353.130, 277 353.288 M 299.575 355.334 C 295.024 359.885, 296.240 364.074, 303.125 367.563 C 306.652 369.350, 308 370.621, 308 372.157 C 308 374.132, 307.618 374.240, 302.500 373.712 C 297.250 373.170, 297 373.250, 297 375.465 C 297 381.496, 311.866 379.653, 313.428 373.429 C 314.310 369.915, 312.020 366.561, 306.985 363.993 C 304.240 362.592, 303 361.303, 303 359.850 C 303 357.943, 303.430 357.788, 307.473 358.244 C 311.278 358.673, 312.037 358.457, 312.564 356.799 C 313.402 354.158, 312.833 353.786, 307.097 353.235 C 302.773 352.820, 301.825 353.084, 299.575 355.334 M 278.777 363.018 L 277.184 368 280.494 368 L 283.804 368 282.399 363.330 C 281.626 360.762, 280.853 358.520, 280.682 358.348 C 280.510 358.177, 279.653 360.278, 278.777 363.018 M 89 390.500 C 87.435 392.386, 88.975 394.526, 92.541 395.421 C 93.893 395.760, 95 396.494, 95 397.050 C 95 398.630, 91.993 399.393, 90.733 398.133 C 89.018 396.418, 87.569 396.776, 89.042 398.551 C 90.977 400.882, 95.427 400.012, 95.823 397.223 C 96.076 395.443, 95.467 394.710, 93.028 393.860 C 89.217 392.531, 89.617 390.395, 93.605 390.779 C 95.831 390.993, 96.153 390.823, 95 390.044 C 92.843 388.587, 90.436 388.770, 89 390.500 M 100.571 390.571 C 97.373 393.770, 99.638 400, 104 400 C 106.567 400, 109 397.324, 109 394.500 C 109 391.676, 106.567 389, 104 389 C 102.979 389, 101.436 389.707, 100.571 390.571 M 113.243 390.157 C 111.545 391.855, 111.674 397.484, 113.445 398.954 C 115.240 400.444, 119.193 399.957, 119.780 398.174 C 120.144 397.072, 119.850 397.072, 118.048 398.174 C 116.153 399.332, 115.696 399.254, 114.439 397.559 C 113.648 396.491, 113 395.115, 113 394.500 C 113 393.885, 113.648 392.509, 114.439 391.441 C 115.696 389.746, 116.153 389.668, 118.048 390.826 C 119.850 391.928, 120.144 391.928, 119.782 390.826 C 119.198 389.051, 114.799 388.601, 113.243 390.157 M 123.750 389.662 C 124.480 389.957, 125 391.969, 125 394.500 C 125 397.031, 124.480 399.043, 123.750 399.338 C 123.063 399.615, 123.625 399.878, 125 399.921 C 127.373 399.996, 127.500 399.721, 127.500 394.500 C 127.500 389.279, 127.373 389.004, 125 389.079 C 123.625 389.122, 123.063 389.385, 123.750 389.662 M 132.266 394.216 C 130.281 399.388, 130.193 402.193, 132.125 398.742 C 133.320 396.606, 136.852 396.451, 137.638 398.500 C 137.955 399.325, 138.588 400, 139.046 400 C 140.183 400, 136.607 389.702, 135.321 389.274 C 134.756 389.085, 133.381 391.309, 132.266 394.216 M 143.185 394.250 L 143 400 146.750 399.840 C 150.370 399.685, 150.389 399.666, 147.300 399.280 C 144.220 398.896, 144.087 398.687, 143.735 393.690 L 143.370 388.500 143.185 394.250 M 158 394.500 L 158 400 162.250 399.840 C 165.934 399.701, 166.067 399.626, 163.250 399.277 C 159.336 398.791, 158.596 395.409, 162.250 394.706 L 164.500 394.272 162.250 394.136 C 158.466 393.907, 159.303 390.213, 163.250 389.723 C 166.067 389.374, 165.934 389.299, 162.250 389.160 L 158 389 158 394.500 M 168 394.500 C 168 397.525, 168.450 400, 169 400 C 169.550 400, 170.028 398.087, 170.062 395.750 L 170.124 391.500 172.259 395.750 C 175.280 401.763, 177 401.309, 177 394.500 C 177 388.315, 175.299 386.967, 174.792 392.750 L 174.463 396.500 172.546 392.750 C 169.713 387.207, 168 387.867, 168 394.500 M 181.698 390.781 C 178.003 394.864, 181.083 400.254, 186.858 399.814 C 189.572 399.607, 190 399.195, 190 396.787 C 190 394.385, 189.620 394.016, 187.250 394.116 C 185.558 394.187, 185.173 394.408, 186.250 394.689 C 188.452 395.265, 188.529 397.583, 186.373 398.410 C 182.755 399.799, 180.302 393.654, 183.436 391.053 C 184.535 390.141, 185.384 390.135, 187.052 391.028 C 188.806 391.967, 189.145 391.932, 188.789 390.847 C 188.089 388.719, 183.602 388.678, 181.698 390.781 M 193.500 394.500 C 193.500 399.721, 193.627 399.996, 196 399.921 C 197.375 399.878, 197.938 399.615, 197.250 399.338 C 196.520 399.043, 196 397.031, 196 394.500 C 196 391.969, 196.520 389.957, 197.250 389.662 C 197.938 389.385, 197.375 389.122, 196 389.079 C 193.627 389.004, 193.500 389.279, 193.500 394.500 M 201.150 394.750 L 201.300 400.500 201.917 396 L 202.533 391.500 204.787 395.750 C 208.031 401.867, 210 401.395, 210 394.500 C 210 388.046, 208.256 387.052, 207.807 393.250 L 207.500 397.500 205.230 393.250 C 203.981 390.913, 202.518 389, 201.980 389 C 201.436 389, 201.067 391.561, 201.150 394.750 M 213 394.500 L 213 400 216.750 399.840 C 220.442 399.682, 220.450 399.674, 217.250 399.277 C 212.996 398.749, 212.623 395.342, 216.750 394.716 L 219.500 394.300 216.750 394.150 C 214.748 394.041, 214 393.473, 214 392.063 C 214 390.628, 214.841 390.022, 217.250 389.723 C 220.450 389.326, 220.442 389.318, 216.750 389.160 L 213 389 213 394.500 M 223 394.500 L 223 400 227.250 399.840 C 230.934 399.701, 231.067 399.626, 228.250 399.277 C 224.336 398.791, 223.596 395.409, 227.250 394.706 L 229.500 394.272 227.250 394.136 C 223.466 393.907, 224.303 390.213, 228.250 389.723 C 231.067 389.374, 230.934 389.299, 227.250 389.160 L 223 389 223 394.500 M 233 394.500 C 233 397.525, 233.450 400, 234 400 C 234.550 400, 235 398.875, 235 397.500 C 235 396.125, 235.374 395, 235.831 395 C 236.288 395, 237.264 396.125, 238 397.500 C 238.736 398.875, 239.712 400, 240.169 400 C 241.334 400, 241.204 398.604, 239.918 397.318 C 239.142 396.542, 239.186 395.674, 240.076 394.250 C 242.022 391.133, 240.582 389, 236.531 389 L 233 389 233 394.500 M 244.800 390.200 C 245.460 390.860, 246 392.795, 246 394.500 C 246 396.205, 245.460 398.140, 244.800 398.800 C 243.867 399.733, 244.256 399.982, 246.550 399.921 C 248.172 399.878, 248.938 399.615, 248.250 399.338 C 247.520 399.043, 247 397.031, 247 394.500 C 247 391.969, 247.520 389.957, 248.250 389.662 C 248.938 389.385, 248.172 389.122, 246.550 389.079 C 244.256 389.018, 243.867 389.267, 244.800 390.200 M 252 394.500 C 252 397.525, 252.450 400, 253 400 C 253.550 400, 254.028 398.087, 254.062 395.750 L 254.124 391.500 256.259 395.750 C 259.280 401.763, 261 401.309, 261 394.500 C 261 388.315, 259.299 386.967, 258.792 392.750 L 258.463 396.500 256.546 392.750 C 253.713 387.207, 252 387.867, 252 394.500 M 265.571 390.571 C 263.760 392.383, 263.550 395.290, 265.031 398.057 C 265.809 399.511, 267.034 399.945, 270.031 399.828 C 273.687 399.684, 274 399.448, 274 396.836 C 274 394.381, 273.631 394.016, 271.250 394.116 C 269.558 394.187, 269.173 394.408, 270.250 394.689 C 272.354 395.239, 272.485 396.353, 270.627 397.895 C 268.313 399.815, 266 398.117, 266 394.500 C 266 390.915, 267.446 389.836, 271.154 390.655 C 273.021 391.068, 273.194 390.955, 272 390.102 C 269.858 388.572, 267.390 388.752, 265.571 390.571 M 283.661 394.093 C 282.666 396.894, 282.100 399.433, 282.402 399.736 C 282.705 400.039, 283.237 399.547, 283.583 398.643 C 284.384 396.556, 289 396.434, 289 398.500 C 289 399.325, 289.498 400, 290.107 400 C 290.716 400, 290.973 399.372, 290.678 398.604 C 290.384 397.836, 289.589 395.361, 288.913 393.104 C 288.237 390.847, 287.185 389, 286.576 389 C 285.968 389, 284.656 391.292, 283.661 394.093 M 294.250 389.689 C 295.618 390.047, 296 391.222, 296 395.073 C 296 397.783, 296.450 400, 297 400 C 297.550 400, 298 397.781, 298 395.070 C 298 390.752, 298.279 390.085, 300.250 389.706 C 301.488 389.467, 300.250 389.263, 297.500 389.252 C 294.750 389.241, 293.288 389.438, 294.250 389.689 M 304.250 389.689 C 305.618 390.047, 306 391.222, 306 395.073 C 306 397.783, 306.450 400, 307 400 C 307.550 400, 308 397.781, 308 395.070 C 308 390.752, 308.279 390.085, 310.250 389.706 C 311.488 389.467, 310.250 389.263, 307.500 389.252 C 304.750 389.241, 303.288 389.438, 304.250 389.689 M 315.569 392.250 C 313.246 397.929, 312.809 400, 313.933 400 C 314.520 400, 315 399.325, 315 398.500 C 315 396.434, 319.616 396.556, 320.417 398.643 C 320.763 399.547, 321.315 400.019, 321.641 399.692 C 322.438 398.896, 318.837 389, 317.751 389 C 317.282 389, 316.300 390.462, 315.569 392.250 M 326.243 390.157 C 324.545 391.855, 324.674 397.484, 326.445 398.954 C 328.240 400.444, 332.193 399.957, 332.780 398.174 C 333.144 397.072, 332.850 397.072, 331.048 398.174 C 329.153 399.332, 328.696 399.254, 327.439 397.559 C 326.648 396.491, 326 395.115, 326 394.500 C 326 393.885, 326.648 392.509, 327.439 391.441 C 328.696 389.746, 329.153 389.668, 331.048 390.826 C 332.850 391.928, 333.144 391.928, 332.782 390.826 C 332.198 389.051, 327.799 388.601, 326.243 390.157 M 337.163 394.500 C 337.094 400.160, 337.161 400.334, 338.337 397.578 L 339.584 394.656 341.806 397.481 C 343.028 399.034, 344.298 400.035, 344.628 399.705 C 344.958 399.375, 344.267 397.884, 343.092 396.390 L 340.957 393.675 343.153 391.338 C 344.360 390.052, 344.899 389, 344.349 389 C 343.799 389, 342.258 390.164, 340.924 391.587 L 338.500 394.174 337.868 391.337 C 337.433 389.384, 337.214 390.370, 337.163 394.500 M 354 390.500 C 352.435 392.386, 353.975 394.526, 357.541 395.421 C 358.893 395.760, 360 396.494, 360 397.050 C 360 398.630, 356.993 399.393, 355.733 398.133 C 354.018 396.418, 352.569 396.776, 354.042 398.551 C 355.977 400.882, 360.427 400.012, 360.823 397.223 C 361.076 395.443, 360.467 394.710, 358.028 393.860 C 354.217 392.531, 354.617 390.395, 358.605 390.779 C 360.831 390.993, 361.153 390.823, 360 390.044 C 357.843 388.587, 355.436 388.770, 354 390.500 M 364.800 390.200 C 365.460 390.860, 366 392.795, 366 394.500 C 366 396.205, 365.460 398.140, 364.800 398.800 C 363.867 399.733, 364.256 399.982, 366.550 399.921 C 368.173 399.878, 368.938 399.615, 368.250 399.338 C 367.520 399.043, 367 397.031, 367 394.500 C 367 391.969, 367.520 389.957, 368.250 389.662 C 368.938 389.385, 368.173 389.122, 366.550 389.079 C 364.256 389.018, 363.867 389.267, 364.800 390.200 M 372 394.500 C 372 400.583, 373.955 402.231, 374.076 396.250 L 374.152 392.500 375.415 396 C 376.110 397.925, 377.048 399.500, 377.500 399.500 C 377.952 399.500, 378.890 397.925, 379.585 396 L 380.848 392.500 380.924 396.250 C 381.045 402.231, 383 400.583, 383 394.500 C 383 387.702, 380.663 386.826, 379 393 C 378.408 395.200, 377.733 397, 377.500 397 C 377.267 397, 376.592 395.200, 376 393 C 374.337 386.826, 372 387.702, 372 394.500 M 386 392.566 C 386 397.310, 387.569 400, 390.335 400 C 393.686 400, 395 398.112, 395 393.300 C 395 387.454, 393.185 387.826, 392.805 393.750 C 392.549 397.732, 392.177 398.500, 390.500 398.500 C 388.823 398.500, 388.451 397.732, 388.195 393.750 C 387.842 388.251, 386 387.258, 386 392.566 M 399.185 394.250 L 399 400 402.750 399.840 C 406.370 399.685, 406.389 399.666, 403.300 399.280 C 400.220 398.896, 400.087 398.687, 399.735 393.690 L 399.370 388.500 399.185 394.250 M 409.266 394.216 C 407.281 399.388, 407.193 402.193, 409.125 398.742 C 410.320 396.606, 413.852 396.451, 414.638 398.500 C 414.955 399.325, 415.588 400, 416.046 400 C 417.183 400, 413.607 389.702, 412.321 389.274 C 411.756 389.085, 410.381 391.309, 409.266 394.216 M 420.250 389.689 C 421.618 390.047, 422 391.222, 422 395.073 C 422 397.783, 422.450 400, 423 400 C 423.550 400, 424 397.783, 424 395.073 C 424 391.222, 424.382 390.047, 425.750 389.689 C 426.712 389.438, 425.475 389.232, 423 389.232 C 420.525 389.232, 419.288 389.438, 420.250 389.689 M 430.655 390.829 C 428.484 393.228, 428.555 396.287, 430.829 398.345 C 434.663 401.815, 439 399.775, 439 394.500 C 439 392.795, 438.460 390.860, 437.800 390.200 C 436.033 388.433, 432.546 388.740, 430.655 390.829 M 442 394.500 C 442 397.525, 442.450 400, 443 400 C 443.550 400, 444 398.875, 444 397.500 C 444 396.125, 444.374 395, 444.831 395 C 445.288 395, 446.264 396.125, 447 397.500 C 447.736 398.875, 448.712 400, 449.169 400 C 450.334 400, 450.204 398.604, 448.918 397.318 C 448.142 396.542, 448.186 395.674, 449.076 394.250 C 451.022 391.133, 449.582 389, 445.531 389 L 442 389 442 394.500 M 102.250 390.662 C 101.563 390.940, 101 392.656, 101 394.476 C 101 397.914, 102.744 399.419, 105.500 398.362 C 107.566 397.569, 107.501 391.406, 105.418 390.607 C 104.548 390.273, 103.761 390.036, 103.668 390.079 C 103.576 390.122, 102.938 390.385, 102.250 390.662 M 235 392 C 235 393.273, 235.667 394, 236.833 394 C 239.193 394, 239.998 393.159, 239.324 391.402 C 238.475 389.190, 235 389.671, 235 392 M 432.200 391.200 C 429.986 393.414, 431.367 399, 434.129 399 C 435.362 399, 438 395.934, 438 394.500 C 438 393.066, 435.362 390, 434.129 390 C 433.728 390, 432.860 390.540, 432.200 391.200 M 444 392 C 444 393.273, 444.667 394, 445.833 394 C 448.193 394, 448.998 393.159, 448.324 391.402 C 447.475 389.190, 444 389.671, 444 392 M 285.675 392.405 C 284.646 395.087, 284.855 396, 286.500 396 C 288.143 396, 288.238 395.465, 287.105 392.573 C 286.404 390.785, 286.301 390.773, 285.675 392.405 M 317.015 391.668 C 317.007 392.311, 316.727 393.548, 316.393 394.418 C 315.995 395.456, 316.338 396, 317.393 396 C 318.277 396, 318.993 395.438, 318.985 394.750 C 318.965 393.129, 317.036 390.110, 317.015 391.668 M 133.710 394 C 133.322 395.483, 133.680 396, 135.094 396 C 137.198 396, 137.270 395.867, 136.393 393.582 C 135.559 391.408, 134.338 391.599, 133.710 394 M 410.710 394 C 410.322 395.483, 410.680 396, 412.094 396 C 414.198 396, 414.270 395.867, 413.393 393.582 C 412.559 391.408, 411.338 391.599, 410.710 394" stroke="none" fill="#fbfbfb" fill-rule="evenodd"/></svg>