<?xml version="1.0" standalone="no"?>
<!DOCTYPE svg PUBLIC "-//W3C//DTD SVG 20010904//EN"
 "http://www.w3.org/TR/2001/REC-SVG-20010904/DTD/svg10.dtd">
<svg version="1.0" xmlns="http://www.w3.org/2000/svg"
 width="538.000000pt" height="456.000000pt" viewBox="0 0 538.000000 456.000000"
 preserveAspectRatio="xMidYMid meet">

<g transform="translate(0.000000,456.000000) scale(0.100000,-0.100000)"
fill="#000000" stroke="none">
<path d="M2295 1019 c-28 -17 -35 -29 -35 -66 0 -32 37 -73 65 -73 6 0 20 -9
31 -21 18 -20 18 -21 -1 -35 -19 -14 -35 -13 -88 2 -15 5 -18 1 -15 -18 2 -17
12 -25 39 -32 69 -17 119 12 119 68 0 35 -15 54 -67 80 -58 29 -31 80 30 57
20 -8 27 -7 31 6 4 9 3 20 -2 25 -15 15 -85 19 -107 7z"/>
<path d="M2490 900 l0 -130 70 0 c63 0 70 2 70 20 0 17 -7 20 -45 20 l-45 0 0
40 0 40 45 0 c38 0 45 3 45 20 0 17 -7 20 -45 20 -43 0 -45 1 -45 30 0 29 2
30 45 30 38 0 45 3 45 20 0 18 -7 20 -70 20 l-70 0 0 -130z"/>
<path d="M2729 900 l-46 -130 27 0 c22 0 29 6 36 33 9 31 12 32 59 32 47 0 50
-1 59 -32 7 -27 14 -33 36 -33 l27 0 -45 130 c-45 129 -46 130 -76 130 -31 0
-32 -1 -77 -130z m105 3 c7 -21 4 -23 -28 -23 -20 0 -36 1 -36 3 0 2 8 26 17
53 l17 49 12 -30 c6 -17 15 -40 18 -52z"/>
<path d="M3010 1017 c-60 -30 -45 -99 30 -137 68 -35 39 -88 -34 -61 -36 14
-36 15 -36 -14 0 -20 6 -25 34 -31 76 -14 130 19 124 77 -2 25 -11 39 -38 56
-75 48 -76 49 -61 67 10 12 23 14 51 10 29 -5 38 -2 43 10 12 31 -66 47 -113
23z"/>
<path d="M892 658 c-19 -19 -14 -28 24 -44 40 -17 41 -39 1 -39 -14 1 -23 -3
-21 -7 8 -13 41 -9 54 7 17 20 6 43 -22 47 -13 2 -24 11 -26 22 -3 15 1 18 22
14 14 -3 23 -1 20 3 -8 13 -38 11 -52 -3z"/>
<path d="M1007 652 c-22 -25 -21 -55 2 -76 25 -23 52 -17 70 15 13 24 13 29
-2 53 -20 30 -47 33 -70 8z m64 -13 c8 -16 8 -28 0 -45 -18 -41 -71 -25 -71
21 0 44 50 61 71 24z"/>
<path d="M1136 654 c-20 -20 -20 -58 0 -78 18 -19 33 -20 54 -5 12 8 10 9 -8
4 -28 -8 -52 10 -52 40 0 30 24 48 52 40 18 -5 20 -4 8 4 -21 15 -36 14 -54
-5z"/>
<path d="M1245 615 c0 -49 2 -55 20 -54 11 0 14 3 8 6 -8 3 -13 23 -13 48 0
25 5 45 13 48 6 3 3 6 -8 6 -18 1 -20 -5 -20 -54z"/>
<path d="M1340 661 c0 -5 4 -11 9 -13 4 -1 12 -13 15 -25 6 -19 4 -23 -14 -23
-17 0 -20 4 -16 23 3 12 -1 7 -10 -12 -8 -18 -13 -38 -10 -45 2 -6 5 -3 5 7 1
22 61 25 61 2 0 -8 4 -15 9 -15 5 0 0 25 -12 55 -17 48 -37 72 -37 46z"/>
<path d="M1432 618 l-2 -58 38 2 c36 1 36 1 5 5 -31 4 -32 6 -36 56 l-3 52 -2
-57z"/>
<path d="M1580 615 l0 -55 38 2 c36 1 36 1 5 5 -43 6 -47 40 -5 46 l27 4 -27
2 c-21 1 -28 6 -28 20 0 15 8 21 33 24 31 4 31 4 -5 5 l-38 2 0 -55z"/>
<path d="M1682 613 c1 -50 2 -52 5 -15 2 23 8 42 13 42 5 0 19 -18 30 -40 11
-22 25 -40 30 -40 6 0 9 26 8 58 l-1 57 -6 -50 -7 -50 -24 48 c-33 66 -50 62
-48 -10z"/>
<path d="M1816 648 c-21 -29 -20 -41 2 -68 25 -31 72 -21 72 15 0 20 -5 25
-22 24 -18 -1 -19 -2 -5 -6 27 -7 17 -38 -12 -38 -28 0 -42 30 -30 64 7 18 15
22 34 19 13 -3 22 -1 19 3 -10 17 -43 9 -58 -13z"/>
<path d="M1938 663 c7 -3 12 -23 12 -48 0 -25 -5 -45 -12 -48 -7 -3 -4 -6 7
-6 18 -1 20 5 20 54 0 49 -2 55 -20 54 -11 0 -14 -3 -7 -6z"/>
<path d="M2012 613 l1 -58 6 50 6 50 25 -48 c14 -26 28 -47 32 -47 5 0 7 26 6
58 l-1 57 -6 -49 -6 -49 -22 47 c-13 25 -27 46 -33 46 -6 0 -9 -24 -8 -57z"/>
<path d="M2130 615 l0 -55 38 2 c36 1 36 1 5 5 -40 5 -47 39 -10 46 l22 4 -22
2 c-38 2 -30 39 10 44 31 4 31 4 -5 5 l-38 2 0 -55z"/>
<path d="M2230 615 l0 -55 38 2 c36 1 36 1 5 5 -43 6 -47 40 -5 46 l27 4 -27
2 c-21 1 -28 6 -28 20 0 15 8 21 33 24 31 4 31 4 -5 5 l-38 2 0 -55z"/>
<path d="M2331 613 c1 -32 3 -49 6 -38 9 36 21 38 48 9 27 -29 27 -29 12 -2
-14 23 -14 27 -2 32 20 7 19 42 -1 50 -9 3 -27 6 -40 6 -23 0 -24 -3 -23 -57z
m64 27 c0 -9 -11 -16 -27 -18 -27 -3 -38 14 -21 32 12 12 48 2 48 -14z"/>
<path d="M2448 663 c7 -3 12 -23 12 -48 0 -25 -5 -45 -12 -48 -7 -3 -4 -6 7
-6 18 -1 20 5 20 54 0 49 -2 55 -20 54 -11 0 -14 -3 -7 -6z"/>
<path d="M2522 613 c1 -50 2 -52 5 -15 2 23 8 42 13 42 5 0 19 -18 30 -40 11
-22 25 -40 30 -40 6 0 9 26 8 58 l-1 57 -6 -50 -7 -50 -24 48 c-33 66 -50 62
-48 -10z"/>
<path d="M2656 654 c-30 -30 -10 -94 29 -94 29 0 45 13 45 36 0 19 -5 24 -22
23 -18 -1 -19 -2 -5 -6 23 -6 18 -37 -6 -41 -25 -5 -47 16 -47 43 0 29 24 49
50 42 11 -3 18 -1 14 4 -8 14 -41 11 -58 -7z"/>
<path d="M2857 664 c-10 -11 -8 -26 2 -20 5 3 12 -1 15 -10 10 -26 7 -34 -14
-34 -14 0 -18 5 -14 18 5 14 4 14 -4 2 -5 -8 -13 -26 -16 -40 -6 -21 -5 -22 4
-7 6 9 20 17 32 17 11 0 27 -8 34 -17 10 -13 9 -4 -3 32 -17 55 -26 69 -36 59z"/>
<path d="M2943 663 c13 -3 17 -16 19 -56 l1 -52 6 49 c4 37 11 51 26 57 14 5
6 7 -25 7 -25 0 -37 -2 -27 -5z"/>
<path d="M3043 663 c13 -3 17 -16 19 -56 l1 -52 6 49 c4 37 11 51 26 57 14 5
6 7 -25 7 -25 0 -37 -2 -27 -5z"/>
<path d="M3165 658 c-27 -75 -34 -102 -21 -85 7 9 23 17 34 17 12 0 26 -8 32
-17 9 -15 10 -14 4 7 -3 14 -11 32 -16 40 -8 12 -9 12 -4 -2 4 -13 0 -18 -14
-18 -21 0 -24 8 -14 34 3 9 10 13 15 10 5 -3 9 -1 9 5 0 16 -20 23 -25 9z"/>
<path d="M3266 654 c-29 -29 -10 -94 27 -94 7 0 19 5 27 11 12 8 10 9 -8 4
-28 -8 -52 10 -52 40 0 30 24 48 52 40 18 -5 20 -4 8 4 -21 15 -36 14 -54 -5z"/>
<path d="M3372 615 c0 -37 3 -51 7 -36 9 34 25 36 41 6 7 -14 17 -25 22 -25 5
0 0 14 -12 30 -21 30 -21 32 -5 58 l18 27 -31 -29 -30 -28 -5 28 c-2 16 -4 2
-5 -31z"/>
<path d="M3542 658 c-19 -19 -14 -28 24 -44 40 -17 41 -39 1 -39 -14 1 -23 -3
-21 -7 8 -13 41 -9 54 7 17 20 6 43 -22 47 -13 2 -24 11 -26 22 -3 15 1 18 22
14 14 -3 23 -1 20 3 -8 13 -38 11 -52 -3z"/>
<path d="M3648 663 c16 -6 16 -90 0 -96 -7 -3 -4 -6 7 -6 18 -1 20 5 20 54 0
49 -2 55 -20 54 -11 0 -14 -3 -7 -6z"/>
<path d="M3722 613 l1 -58 6 50 6 50 14 -40 c20 -59 28 -62 43 -14 l13 44 6
-45 6 -45 1 58 c1 31 -2 57 -6 57 -5 0 -15 -21 -24 -47 l-15 -48 -14 48 c-19
67 -39 62 -37 -10z"/>
<path d="M3861 645 c-1 -50 10 -75 37 -82 34 -8 52 18 50 71 l-1 41 -6 -44
c-11 -82 -58 -81 -72 1 -5 34 -7 37 -8 13z"/>
<path d="M3992 618 l-2 -58 38 2 c36 1 36 1 5 5 -31 4 -32 6 -36 56 l-3 52 -2
-57z"/>
<path d="M4110 661 c0 -5 4 -11 9 -13 4 -1 12 -13 15 -25 6 -19 4 -23 -14 -23
-17 0 -20 4 -16 23 3 12 -1 7 -10 -12 -8 -18 -13 -38 -10 -45 2 -6 5 -3 5 7 1
22 61 25 61 2 0 -8 4 -15 9 -15 5 0 0 25 -12 55 -17 48 -37 72 -37 46z"/>
<path d="M4202 663 c13 -3 18 -18 21 -56 l3 -52 2 52 c2 45 5 52 25 56 12 2 2
4 -23 4 -25 1 -37 -1 -28 -4z"/>
<path d="M4303 644 c-15 -24 -15 -29 -2 -53 27 -48 89 -31 89 24 0 53 -58 73
-87 29z m65 4 c16 -16 15 -53 -3 -68 -33 -28 -71 12 -54 58 9 24 38 29 57 10z"/>
<path d="M4421 613 c1 -32 3 -49 6 -38 9 36 21 38 48 9 27 -29 27 -29 12 -2
-14 23 -14 27 -2 32 20 7 19 42 -1 50 -9 3 -27 6 -40 6 -23 0 -24 -3 -23 -57z
m64 27 c0 -9 -11 -16 -27 -18 -27 -3 -38 14 -21 32 12 12 48 2 48 -14z"/>
</g>
</svg>
